<svg xmlns="http://www.w3.org/2000/svg" viewBox="0 0 256 256" fill="none">
  <path d="M147.824 17.907c-6.772-6.813-17.764-6.838-24.555-.056l-84.3 84.199c-12.633 12.59-12.633 33.183 0 45.772l84.3 84.2c6.79 6.782 17.783 6.757 24.555-.056 6.693-6.728 6.693-17.645 0-24.373L76.18 135.906c-3.393-3.386-3.393-8.88 0-12.266l71.645-71.7c6.693-6.728 6.693-17.645 0-24.373Z" fill="#FFA116"/>
  <path d="M198.889 115.556H107.11a8.889 8.889 0 0 0 0 17.778h91.777a8.889 8.889 0 0 0 0-17.778Z" fill="#2D2D2D"/>
</svg>
